<svg width="20" height="22" viewBox="0 0 20 22" fill="none" xmlns="http://www.w3.org/2000/svg">
<path d="M3.17051 17.2222L1 16V13.2222M1 8.77778V6L3.17051 4.77778M7.51153 2.22222L9.68204 1L11.8526 2.22222M16.1936 4.77778L18.3641 6V8.77778M18.3641 13.2222V16L16.1936 17.2444M11.8526 19.7778L9.68204 21L7.51153 19.7778M9.68204 11L11.8526 9.77778L9.68204 11ZM16.1936 7.22222L18.3641 6L16.1936 7.22222ZM9.68204 11V13.7778V11ZM9.68204 18.2222V21V18.2222ZM9.68204 11L7.51153 9.75556L9.68204 11ZM3.17051 7.22222L1 6L3.17051 7.22222Z" fill="url(#paint0_linear_1353_14)" fill-opacity="0.8"/>
<path d="M3.17051 17.2222L1 16V13.2222M1 8.77778V6L3.17051 4.77778M7.51153 2.22222L9.68204 1L11.8526 2.22222M16.1936 4.77778L18.3641 6V8.77778M18.3641 13.2222V16L16.1936 17.2444M11.8526 19.7778L9.68204 21L7.51153 19.7778M9.68204 11L11.8526 9.77778M16.1936 7.22222L18.3641 6M9.68204 11V13.7778M9.68204 18.2222V21M9.68204 11L7.51153 9.75556M3.17051 7.22222L1 6" stroke="url(#paint1_linear_1353_14)" stroke-opacity="0.8" stroke-width="2" stroke-linecap="round" stroke-linejoin="round"/>
<defs>
<linearGradient id="paint0_linear_1353_14" x1="1.64311" y1="11" x2="18.396" y2="11.3367" gradientUnits="userSpaceOnUse">
<stop stop-color="#DCF8EF"/>
<stop offset="1" stop-color="#FEE2F8"/>
</linearGradient>
<linearGradient id="paint1_linear_1353_14" x1="1.64311" y1="11" x2="18.396" y2="11.3367" gradientUnits="userSpaceOnUse">
<stop stop-color="#DCF8EF"/>
<stop offset="1" stop-color="#FEE2F8"/>
</linearGradient>
</defs>
</svg>
