<svg width="28" height="29" viewBox="0 0 28 29" fill="none" xmlns="http://www.w3.org/2000/svg">
<path d="M20.482 10.402V17.5709C20.482 18.5137 20.482 18.9851 20.7749 19.278C21.0678 19.5709 21.5392 19.5709 22.482 19.5709H22.8583C25.282 19.5709 26.4938 19.5709 26.7253 20.247C26.9567 20.9231 25.9992 21.6658 24.0841 23.1512L19.0041 27.0916C18.4398 27.5293 18.1576 27.7481 17.8276 27.7554C17.4975 27.7626 17.206 27.5564 16.6231 27.1439L10.5935 22.8775C8.87915 21.6645 8.02198 21.0579 8.06823 20.4898C8.08054 20.3385 8.12712 20.192 8.20445 20.0614C8.49488 19.5709 9.54493 19.5709 11.645 19.5709V19.5709C12.4146 19.5709 12.7994 19.5709 13.0663 19.3703C13.1415 19.3138 13.2084 19.2469 13.265 19.1716C13.4655 18.9047 13.4655 18.52 13.4655 17.7504L13.4655 10.0657C13.4655 9.43391 13.4655 9.11799 13.6032 8.88355C13.6895 8.73642 13.8121 8.61384 13.9593 8.52746C14.1937 8.38983 14.5096 8.38983 15.1414 8.38983V8.38983C16.8816 8.38983 17.7517 8.38983 18.0507 8.04515C18.2326 7.83546 18.3192 7.5596 18.2897 7.28358C18.2412 6.82984 17.5271 6.33272 16.099 5.33848L10.9965 1.78625C10.4499 1.40578 10.1767 1.21555 9.86588 1.21385C9.55509 1.21214 9.27976 1.39937 8.72911 1.77383L3.37575 5.41423C2.01658 6.33849 1.33699 6.80063 1.26393 7.217C1.20848 7.53302 1.30803 7.85646 1.53159 8.08661C1.82614 8.38983 2.64797 8.38983 4.29163 8.38983V8.38983C4.87884 8.38983 5.17244 8.38983 5.39438 8.5093C5.56677 8.6021 5.70812 8.74345 5.80092 8.91583C5.92039 9.13778 5.92039 9.43138 5.92039 10.0186L5.92039 17.9321" stroke="url(#paint0_linear_26_92)" stroke-opacity="0.7" stroke-width="2"/>
<defs>
<linearGradient id="paint0_linear_26_92" x1="-1" y1="1" x2="31.8379" y2="8.49851" gradientUnits="userSpaceOnUse">
<stop stop-color="#43CEA2"/>
<stop offset="1" stop-color="#5493D2" stop-opacity="0.88"/>
</linearGradient>
</defs>
</svg>
