<svg width="63" height="26" viewBox="0 0 63 26" fill="none" xmlns="http://www.w3.org/2000/svg">
<path d="M11.2278 15.2383C11.2278 14.7983 11.1588 14.4102 11.0208 14.0737C10.8914 13.7287 10.6584 13.4181 10.322 13.1421C9.99422 12.866 9.53703 12.6029 8.95044 12.3528C8.37248 12.1026 7.63924 11.8481 6.75073 11.5894C5.81909 11.3133 4.97803 11.0071 4.22754 10.6707C3.47705 10.3256 2.83439 9.93311 2.29956 9.49316C1.76473 9.05322 1.35498 8.54858 1.07031 7.97925C0.785645 7.40991 0.643311 6.75863 0.643311 6.02539C0.643311 5.29215 0.794271 4.61499 1.09619 3.9939C1.39811 3.3728 1.82943 2.83366 2.39014 2.37646C2.95947 1.91064 3.63664 1.54834 4.42163 1.28955C5.20662 1.03076 6.08219 0.901367 7.04834 0.901367C8.46305 0.901367 9.66211 1.1731 10.6455 1.71655C11.6375 2.25138 12.3923 2.95443 12.9099 3.82568C13.4275 4.68831 13.6863 5.61133 13.6863 6.59473H11.2019C11.2019 5.88737 11.0509 5.26196 10.749 4.71851C10.4471 4.16642 9.98991 3.73511 9.37744 3.42456C8.76497 3.10539 7.98861 2.9458 7.04834 2.9458C6.15983 2.9458 5.4266 3.07951 4.84863 3.34692C4.27067 3.61434 3.83936 3.97664 3.55469 4.43384C3.27865 4.89103 3.14062 5.41292 3.14062 5.99951C3.14062 6.39632 3.22257 6.75863 3.38647 7.08643C3.559 7.4056 3.8221 7.70321 4.17578 7.97925C4.53809 8.25529 4.99528 8.50977 5.54736 8.74268C6.10807 8.97559 6.77661 9.19987 7.55298 9.41553C8.62264 9.71745 9.54565 10.0539 10.322 10.4248C11.0984 10.7957 11.7367 11.2141 12.2371 11.6799C12.746 12.1371 13.1213 12.659 13.3628 13.2456C13.613 13.8236 13.738 14.4792 13.738 15.2124C13.738 15.9801 13.5828 16.6746 13.2722 17.2957C12.9617 17.9167 12.5174 18.4473 11.9395 18.8872C11.3615 19.3271 10.6671 19.6679 9.8562 19.9094C9.05396 20.1423 8.15682 20.2588 7.16479 20.2588C6.29354 20.2588 5.43522 20.138 4.58984 19.8965C3.75309 19.6549 2.98966 19.2926 2.29956 18.8096C1.61808 18.3265 1.07031 17.7313 0.65625 17.0239C0.250814 16.3079 0.0480957 15.4798 0.0480957 14.5396H2.53247C2.53247 15.1865 2.65755 15.7429 2.90771 16.2087C3.15788 16.6659 3.49862 17.0455 3.92993 17.3474C4.36987 17.6493 4.86589 17.8736 5.41797 18.0203C5.97868 18.1583 6.56095 18.2273 7.16479 18.2273C8.03605 18.2273 8.7736 18.1065 9.37744 17.865C9.98128 17.6235 10.4385 17.2784 10.749 16.8298C11.0682 16.3813 11.2278 15.8507 11.2278 15.2383ZM20.1042 17.5156L23.7014 5.99951H25.28L24.9695 8.28979L21.3076 20H19.7678L20.1042 17.5156ZM17.6846 5.99951L20.7512 17.645L20.9712 20H19.3538L15.2908 5.99951H17.6846ZM28.7219 17.5544L31.6462 5.99951H34.0271L29.9641 20H28.3596L28.7219 17.5544ZM25.6294 5.99951L29.1489 17.3215L29.55 20H28.0232L24.2578 8.26392L23.9473 5.99951H25.6294ZM44.741 17.6062V10.3989C44.741 9.84684 44.6288 9.36808 44.4045 8.96265C44.1889 8.54858 43.8611 8.22941 43.4211 8.00513C42.9812 7.78084 42.4377 7.6687 41.7908 7.6687C41.1869 7.6687 40.6564 7.77222 40.1992 7.97925C39.7507 8.18628 39.397 8.45801 39.1382 8.79443C38.888 9.13086 38.7629 9.49316 38.7629 9.88135H36.3691C36.3691 9.38102 36.4985 8.88501 36.7573 8.39331C37.0161 7.90161 37.387 7.45736 37.8701 7.06055C38.3618 6.65511 38.9484 6.33594 39.6299 6.10303C40.32 5.86149 41.0877 5.74072 41.9331 5.74072C42.951 5.74072 43.8481 5.91325 44.6245 6.2583C45.4095 6.60335 46.022 7.12524 46.4619 7.82397C46.9105 8.51408 47.1348 9.38102 47.1348 10.4248V16.9463C47.1348 17.4121 47.1736 17.9081 47.2512 18.4343C47.3375 18.9605 47.4626 19.4134 47.6265 19.793V20H45.1292C45.0084 19.724 44.9135 19.3573 44.8445 18.9001C44.7755 18.4343 44.741 18.003 44.741 17.6062ZM45.155 11.5117L45.1809 13.1938H42.7612C42.0798 13.1938 41.4716 13.2499 40.9368 13.3621C40.4019 13.4656 39.9534 13.6252 39.5911 13.8408C39.2288 14.0565 38.9527 14.3282 38.7629 14.656C38.5732 14.9752 38.4783 15.3504 38.4783 15.7817C38.4783 16.2217 38.5775 16.6228 38.7759 16.9851C38.9743 17.3474 39.2719 17.6364 39.6687 17.8521C40.0741 18.0591 40.5701 18.1626 41.1567 18.1626C41.89 18.1626 42.5369 18.0073 43.0977 17.6968C43.6584 17.3862 44.1026 17.0067 44.4304 16.5581C44.7668 16.1095 44.948 15.6739 44.9739 15.2512L45.9961 16.4028C45.9357 16.7651 45.7718 17.1663 45.5044 17.6062C45.237 18.0461 44.879 18.4688 44.4304 18.8743C43.9905 19.2711 43.4643 19.6032 42.8518 19.8706C42.248 20.1294 41.5665 20.2588 40.8074 20.2588C39.8585 20.2588 39.026 20.0733 38.3101 19.7024C37.6027 19.3315 37.0506 18.8354 36.6538 18.2144C36.2656 17.5846 36.0715 16.8816 36.0715 16.1052C36.0715 15.3547 36.2182 14.6948 36.5115 14.1255C36.8048 13.5475 37.2275 13.0688 37.7795 12.6892C38.3316 12.301 38.9958 12.0077 39.7722 11.8093C40.5486 11.6109 41.4155 11.5117 42.373 11.5117H45.155ZM53.2939 8.69092V25.3828H50.8872V5.99951H53.0869L53.2939 8.69092ZM62.7268 12.8833V13.155C62.7268 14.1729 62.606 15.1175 62.3645 15.9888C62.123 16.8514 61.7693 17.6019 61.3035 18.2402C60.8463 18.8786 60.2812 19.3746 59.6084 19.7283C58.9355 20.0819 58.1635 20.2588 57.2922 20.2588C56.4037 20.2588 55.6187 20.1121 54.9373 19.8188C54.2558 19.5256 53.6778 19.0986 53.2034 18.5378C52.7289 17.9771 52.3494 17.3043 52.0647 16.5193C51.7887 15.7343 51.5989 14.8501 51.4954 13.8667V12.4175C51.5989 11.3823 51.793 10.455 52.0776 9.6355C52.3623 8.816 52.7375 8.11727 53.2034 7.53931C53.6778 6.95272 54.2515 6.50846 54.9243 6.20654C55.5972 5.896 56.3735 5.74072 57.2534 5.74072C58.1333 5.74072 58.914 5.91325 59.5955 6.2583C60.2769 6.59473 60.8506 7.0778 61.3164 7.70752C61.7822 8.33724 62.1316 9.09204 62.3645 9.97192C62.606 10.8432 62.7268 11.8136 62.7268 12.8833ZM60.3201 13.155V12.8833C60.3201 12.1846 60.2467 11.529 60.1001 10.9165C59.9535 10.2954 59.7249 9.75195 59.4143 9.28613C59.1124 8.81169 58.7242 8.44076 58.2498 8.17334C57.7753 7.8973 57.2103 7.75928 56.5547 7.75928C55.9508 7.75928 55.4246 7.86279 54.9761 8.06982C54.5361 8.27686 54.1609 8.55721 53.8503 8.91089C53.5398 9.25594 53.2853 9.65275 53.0869 10.1013C52.8971 10.5413 52.7548 10.9985 52.6599 11.4729V14.8242C52.8324 15.4281 53.074 15.9974 53.3845 16.5322C53.6951 17.0584 54.1091 17.4854 54.6267 17.8132C55.1443 18.1324 55.7956 18.292 56.5806 18.292C57.2275 18.292 57.7839 18.1583 58.2498 17.8909C58.7242 17.6148 59.1124 17.2396 59.4143 16.7651C59.7249 16.2907 59.9535 15.7472 60.1001 15.1348C60.2467 14.5137 60.3201 13.8538 60.3201 13.155Z" fill="url(#paint0_linear_9_19)" fill-opacity="0.5"/>
<path d="M11.0208 14.0737L10.459 14.2844L10.4622 14.293L10.4657 14.3015L11.0208 14.0737ZM10.322 13.1421L9.93551 13.6011L9.94143 13.6059L10.322 13.1421ZM8.95044 12.3528L8.7121 12.9034L8.71507 12.9047L8.95044 12.3528ZM6.75073 11.5894L6.58028 12.1646L6.58295 12.1654L6.75073 11.5894ZM4.22754 10.6707L3.97689 11.2158L3.98211 11.2182L4.22754 10.6707ZM2.39014 2.37646L2.7693 2.84148L2.77008 2.84084L2.39014 2.37646ZM10.6455 1.71655L10.3553 2.24173L10.3608 2.24469L10.6455 1.71655ZM12.9099 3.82568L12.3941 4.13213L12.3954 4.13438L12.9099 3.82568ZM13.6863 6.59473V7.19473H14.2863V6.59473H13.6863ZM11.2019 6.59473H10.6019V7.19473H11.2019V6.59473ZM10.749 4.71851L10.2226 5.0064L10.2245 5.00989L10.749 4.71851ZM9.37744 3.42456L9.10014 3.95668L9.1061 3.9597L9.37744 3.42456ZM3.55469 4.43384L3.0453 4.11667L3.04105 4.12372L3.55469 4.43384ZM3.38647 7.08643L2.84982 7.35475L2.8541 7.36332L2.85865 7.37174L3.38647 7.08643ZM4.17578 7.97925L3.80659 8.45227L3.81216 8.45651L4.17578 7.97925ZM5.54736 8.74268L5.31414 9.2955L5.3172 9.29677L5.54736 8.74268ZM7.55298 9.41553L7.71597 8.83808L7.71356 8.83742L7.55298 9.41553ZM12.2371 11.6799L11.8281 12.1191L11.8361 12.1263L12.2371 11.6799ZM13.3628 13.2456L12.8079 13.4741L12.8122 13.4839L13.3628 13.2456ZM11.9395 18.8872L11.576 18.4098L11.9395 18.8872ZM9.8562 19.9094L10.0235 20.4856L10.0275 20.4845L9.8562 19.9094ZM4.58984 19.8965L4.42344 20.4729L4.42501 20.4734L4.58984 19.8965ZM2.29956 18.8096L1.95257 19.2991L1.95548 19.3011L2.29956 18.8096ZM0.65625 17.0239L0.134093 17.3196L0.138441 17.327L0.65625 17.0239ZM0.0480957 14.5396V13.9396H-0.551904V14.5396H0.0480957ZM2.53247 14.5396H3.13247V13.9396H2.53247V14.5396ZM2.90771 16.2087L2.3791 16.4926L2.38136 16.4967L2.90771 16.2087ZM3.92993 17.3474L3.58584 17.839L3.59043 17.8421L3.92993 17.3474ZM5.41797 18.0203L5.26391 18.6003L5.27456 18.6029L5.41797 18.0203ZM9.37744 17.865L9.15461 17.3079L9.37744 17.865ZM10.749 16.8298L10.2601 16.482L10.2557 16.4883L10.749 16.8298ZM11.8278 15.2383C11.8278 14.7362 11.749 14.2681 11.5759 13.846L10.4657 14.3015C10.5685 14.5522 10.6278 14.8605 10.6278 15.2383H11.8278ZM11.5825 13.8631C11.4099 13.4026 11.1058 13.0091 10.7026 12.6782L9.94143 13.6059C10.2111 13.8272 10.3728 14.0548 10.459 14.2844L11.5825 13.8631ZM10.7085 12.6831C10.3189 12.355 9.80315 12.0642 9.18581 11.8009L8.71507 12.9047C9.27091 13.1417 9.66958 13.3771 9.93554 13.601L10.7085 12.6831ZM9.18877 11.8022C8.57992 11.5386 7.82102 11.2762 6.91852 11.0133L6.58295 12.1654C7.45746 12.4201 8.16503 12.6666 8.71211 12.9034L9.18877 11.8022ZM6.92119 11.0141C6.01068 10.7443 5.19522 10.4469 4.47297 10.1231L3.98211 11.2182C4.76084 11.5672 5.6275 11.8823 6.58028 12.1646L6.92119 11.0141ZM4.47818 10.1255C3.76583 9.79799 3.16896 9.43141 2.68072 9.02979L1.9184 9.95654C2.49982 10.4348 3.18828 10.8532 3.9769 11.2158L4.47818 10.1255ZM2.68072 9.02979C2.20504 8.6385 1.85084 8.19866 1.60697 7.71092L0.533656 8.24758C0.859125 8.89851 1.32442 9.46794 1.9184 9.95654L2.68072 9.02979ZM1.60697 7.71092C1.36987 7.23672 1.24331 6.67966 1.24331 6.02539H0.0433105C0.0433105 6.83759 0.201422 7.58311 0.533656 8.24758L1.60697 7.71092ZM1.24331 6.02539C1.24331 5.37729 1.37606 4.79056 1.63581 4.25621L0.556571 3.73158C0.212479 4.43943 0.0433105 5.20702 0.0433105 6.02539H1.24331ZM1.63581 4.25621C1.89779 3.71728 2.27287 3.24625 2.7693 2.84148L2.01097 1.91145C1.38598 2.42106 0.89843 3.02833 0.556571 3.73158L1.63581 4.25621ZM2.77008 2.84084C3.27579 2.42707 3.88586 2.09794 4.60949 1.85938L4.23377 0.719718C3.38742 0.998736 2.64315 1.39422 2.01019 1.91209L2.77008 2.84084ZM4.60949 1.85938C5.32462 1.62363 6.13549 1.50137 7.04834 1.50137V0.301367C6.02889 0.301367 5.08863 0.437897 4.23377 0.719718L4.60949 1.85938ZM7.04834 1.50137C8.38737 1.50137 9.4809 1.75848 10.3553 2.2417L10.9357 1.19141C9.84332 0.587711 8.53873 0.301367 7.04834 0.301367V1.50137ZM10.3608 2.24469C11.2681 2.73387 11.9381 3.36455 12.3941 4.13212L13.4258 3.51924C12.8466 2.5443 12.0069 1.7689 10.9302 1.18842L10.3608 2.24469ZM12.3954 4.13438C12.8584 4.90601 13.0863 5.72267 13.0863 6.59473H14.2863C14.2863 5.49999 13.9966 4.47061 13.4244 3.51699L12.3954 4.13438ZM13.6863 5.99473H11.2019V7.19473H13.6863V5.99473ZM11.8019 6.59473C11.8019 5.79965 11.6314 5.07139 11.2735 4.42712L10.2245 5.00989C10.4704 5.45254 10.6019 5.97509 10.6019 6.59473H11.8019ZM11.2754 4.43062C10.9101 3.76253 10.359 3.24951 9.64878 2.88942L9.1061 3.9597C9.62086 4.22071 9.98412 4.57031 10.2226 5.00639L11.2754 4.43062ZM9.65473 2.89248C8.93137 2.51552 8.05194 2.3458 7.04834 2.3458V3.5458C7.92528 3.5458 8.59858 3.69526 9.10016 3.95665L9.65473 2.89248ZM7.04834 2.3458C6.105 2.3458 5.27837 2.48698 4.59668 2.80239L5.10058 3.89146C5.57482 3.67204 6.21466 3.5458 7.04834 3.5458V2.3458ZM4.59668 2.80239C3.9323 3.10979 3.40238 3.54329 3.04535 4.1167L4.06403 4.75097C4.27633 4.40999 4.60904 4.11889 5.10058 3.89146L4.59668 2.80239ZM3.04105 4.12372C2.70304 4.68355 2.54063 5.3147 2.54063 5.99951H3.74062C3.74062 5.51114 3.85425 5.09852 4.06833 4.74396L3.04105 4.12372ZM2.54063 5.99951C2.54063 6.48161 2.64088 6.93688 2.84982 7.35475L3.92313 6.8181C3.80427 6.58037 3.74062 6.31104 3.74062 5.99951H2.54063ZM2.85865 7.37174C3.07869 7.77881 3.40268 8.13697 3.80662 8.45224L4.54494 7.50626C4.24153 7.26944 4.03931 7.03238 3.9143 6.80112L2.85865 7.37174ZM3.81216 8.45651C4.22489 8.77097 4.72928 9.04875 5.31414 9.29549L5.78058 8.18986C5.26128 7.97078 4.85128 7.73961 4.53941 7.50199L3.81216 8.45651ZM5.3172 9.29677C5.90653 9.54157 6.5995 9.77339 7.39239 9.99364L7.71356 8.83742C6.95372 8.62635 6.30961 8.4096 5.77753 8.18858L5.3172 9.29677ZM7.38999 9.99297C8.43574 10.2881 9.32519 10.6135 10.0634 10.9662L10.5807 9.88342C9.76612 9.49424 8.80954 9.14676 7.71597 8.83809L7.38999 9.99297ZM10.0634 10.9662C10.7983 11.3173 11.3823 11.7039 11.8282 12.1191L12.6459 11.2408C12.0912 10.7243 11.3985 10.2741 10.5807 9.88342L10.0634 10.9662ZM11.8361 12.1263C12.2834 12.5281 12.6034 12.9771 12.808 13.4741L13.9176 13.0172C13.6391 12.3409 13.2086 11.7461 12.638 11.2336L11.8361 12.1263ZM12.8122 13.4839C13.0248 13.9753 13.138 14.5478 13.138 15.2124H14.338C14.338 14.4105 14.2011 13.6718 13.9134 13.0073L12.8122 13.4839ZM13.138 15.2124C13.138 15.897 13.0002 16.498 12.7356 17.0273L13.8089 17.564C14.1653 16.8511 14.338 16.0633 14.338 15.2124H13.138ZM12.7356 17.0273C12.4679 17.5626 12.0845 18.0228 11.576 18.4098L12.3029 19.3646C12.9503 18.8718 13.4554 18.2709 13.8089 17.564L12.7356 17.0273ZM11.576 18.4098C11.0644 18.7993 10.4376 19.1102 9.68492 19.3344L10.0275 20.4845C10.8965 20.2256 11.6586 19.855 12.3029 19.3646L11.576 18.4098ZM9.68892 19.3332C8.95008 19.5477 8.11049 19.6588 7.16479 19.6588V20.8588C8.20315 20.8588 9.15783 20.737 10.0235 20.4856L9.68892 19.3332ZM7.16479 19.6588C6.3498 19.6588 5.54694 19.5459 4.75468 19.3196L4.42501 20.4734C5.3235 20.7301 6.23728 20.8588 7.16479 20.8588V19.6588ZM4.75625 19.32C3.98082 19.0962 3.27777 18.7619 2.64364 18.318L1.95548 19.3011C2.70156 19.8234 3.52537 20.2137 4.42344 20.4729L4.75625 19.32ZM2.64654 18.3201C2.03323 17.8853 1.54422 17.3532 1.17406 16.7208L0.138441 17.327C0.596402 18.1094 1.20294 18.7677 1.95258 19.2991L2.64654 18.3201ZM1.17835 16.7283C0.830893 16.1147 0.648096 15.3912 0.648096 14.5396H-0.551904C-0.551904 15.5684 -0.329266 16.5012 0.134147 17.3196L1.17835 16.7283ZM0.0480957 15.1396H2.53247V13.9396H0.0480957V15.1396ZM1.93247 14.5396C1.93247 15.2637 2.07271 15.9221 2.37912 16.4926L3.43631 15.9249C3.24239 15.5638 3.13247 15.1094 3.13247 14.5396H1.93247ZM2.38136 16.4967C2.67629 17.0358 3.07974 17.4847 3.58585 17.839L4.27401 16.8559C3.9175 16.6063 3.63947 16.2961 3.43407 15.9207L2.38136 16.4967ZM3.59043 17.8421C4.09074 18.1855 4.65031 18.4372 5.26394 18.6002L5.572 17.4404C5.08146 17.3101 4.649 17.1132 4.26944 16.8527L3.59043 17.8421ZM5.27456 18.6029C5.88429 18.753 6.51483 18.8273 7.16479 18.8273V17.6273C6.60708 17.6273 6.07306 17.5636 5.56138 17.4377L5.27456 18.6029ZM7.16479 18.8273C8.08796 18.8273 8.90596 18.6998 9.60028 18.4221L9.15461 17.3079C8.64124 17.5133 7.98414 17.6273 7.16479 17.6273V18.8273ZM9.60028 18.4221C10.2921 18.1453 10.8528 17.7341 11.2423 17.1714L10.2557 16.4883C10.0242 16.8227 9.67043 17.1016 9.15461 17.3079L9.60028 18.4221ZM11.2379 17.1777C11.6374 16.6162 11.8278 15.9608 11.8278 15.2383H10.6278C10.6278 15.7407 10.499 16.1463 10.2601 16.482L11.2379 17.1777ZM20.1042 17.5156L19.5315 17.3367L19.5165 17.385L19.5097 17.4351L20.1042 17.5156ZM23.7014 5.99951V5.39951H23.2602L23.1287 5.82062L23.7014 5.99951ZM25.28 5.99951L25.8746 6.08013L25.9669 5.39951H25.28V5.99951ZM24.9695 8.28979L25.5421 8.46887L25.5572 8.42056L25.564 8.37041L24.9695 8.28979ZM21.3076 20V20.6H21.7486L21.8803 20.1791L21.3076 20ZM19.7678 20L19.1732 19.9195L19.0811 20.6H19.7678V20ZM17.6846 5.99951L18.2648 5.84672L18.147 5.39951H17.6846V5.99951ZM20.7512 17.645L21.3486 17.5892L21.344 17.54L21.3314 17.4922L20.7512 17.645ZM20.9712 20V20.6H21.6298L21.5686 19.9442L20.9712 20ZM19.3538 20L18.7775 20.1672L18.9031 20.6H19.3538V20ZM15.2908 5.99951V5.39951H14.4919L14.7145 6.16673L15.2908 5.99951ZM28.7219 17.5544L28.1403 17.4072L28.1328 17.4366L28.1284 17.4665L28.7219 17.5544ZM31.6462 5.99951V5.39951H31.1792L31.0646 5.85231L31.6462 5.99951ZM34.0271 5.99951L34.6033 6.16673L34.826 5.39951H34.0271V5.99951ZM29.9641 20V20.6H30.4147L30.5403 20.1672L29.9641 20ZM28.3596 20L27.7661 19.9121L27.6642 20.6H28.3596V20ZM25.6294 5.99951L26.2024 5.8214L26.0712 5.39951H25.6294V5.99951ZM29.1489 17.3215L29.7423 17.2327L29.7355 17.1873L29.7219 17.1434L29.1489 17.3215ZM29.55 20V20.6H30.2466L30.1434 19.9111L29.55 20ZM28.0232 20L27.4519 20.1833L27.5856 20.6H28.0232V20ZM24.2578 8.26392L23.6634 8.34544L23.6705 8.39734L23.6865 8.44722L24.2578 8.26392ZM23.9473 5.99951V5.39951H23.2594L23.3528 6.08103L23.9473 5.99951ZM20.677 17.6945L24.2741 6.1784L23.1287 5.82062L19.5315 17.3367L20.677 17.6945ZM23.7014 6.59951H25.28V5.39951H23.7014V6.59951ZM24.6855 5.91889L24.3749 8.20918L25.564 8.37041L25.8746 6.08013L24.6855 5.91889ZM24.3968 8.11072L20.735 19.8209L21.8803 20.1791L25.5421 8.46887L24.3968 8.11072ZM21.3076 19.4H19.7678V20.6H21.3076V19.4ZM20.3624 20.0805L20.6988 17.5961L19.5097 17.4351L19.1732 19.9195L20.3624 20.0805ZM17.1044 6.1523L20.171 17.7978L21.3314 17.4922L18.2648 5.84672L17.1044 6.1523ZM20.1538 17.7008L20.3738 20.0558L21.5686 19.9442L21.3486 17.5892L20.1538 17.7008ZM20.9712 19.4H19.3538V20.6H20.9712V19.4ZM19.93 19.8328L15.867 5.83229L14.7145 6.16673L18.7775 20.1672L19.93 19.8328ZM15.2908 6.59951H17.6846V5.39951H15.2908V6.59951ZM29.3036 17.7017L32.2279 6.14672L31.0646 5.85231L28.1403 17.4072L29.3036 17.7017ZM31.6462 6.59951H34.0271V5.39951H31.6462V6.59951ZM33.4509 5.83229L29.3879 19.8328L30.5403 20.1672L34.6033 6.16673L33.4509 5.83229ZM29.9641 19.4H28.3596V20.6H29.9641V19.4ZM28.9531 20.0879L29.3154 17.6424L28.1284 17.4665L27.7661 19.9121L28.9531 20.0879ZM25.0564 6.17762L28.576 17.4996L29.7219 17.1434L26.2024 5.8214L25.0564 6.17762ZM28.5555 17.4104L28.9567 20.0889L30.1434 19.9111L29.7423 17.2327L28.5555 17.4104ZM29.55 19.4H28.0232V20.6H29.55V19.4ZM28.5945 19.8167L24.8291 8.08062L23.6865 8.44722L27.4519 20.1833L28.5945 19.8167ZM24.8522 8.18239L24.5417 5.91799L23.3528 6.08103L23.6634 8.34544L24.8522 8.18239ZM23.9473 6.59951H25.6294V5.39951H23.9473V6.59951ZM44.4045 8.96265L43.8724 9.23981L43.8759 9.24649L43.8795 9.25308L44.4045 8.96265ZM40.1992 7.97925L39.9517 7.43266L39.9478 7.43447L40.1992 7.97925ZM39.1382 8.79443L38.6625 8.42856L38.6567 8.43641L39.1382 8.79443ZM38.7629 9.88135V10.4813H39.3629V9.88135H38.7629ZM36.3691 9.88135H35.7691V10.4813H36.3691V9.88135ZM37.8701 7.06055L38.251 7.52418L38.2518 7.52347L37.8701 7.06055ZM39.6299 6.10303L39.8239 6.6708L39.8281 6.66934L39.6299 6.10303ZM44.6245 6.2583L44.3808 6.80659L44.3831 6.80758L44.6245 6.2583ZM46.4619 7.82397L45.9541 8.1437L45.9588 8.15097L46.4619 7.82397ZM47.2512 18.4343L46.6576 18.5219L46.6591 18.5314L47.2512 18.4343ZM47.6265 19.793H48.2265V19.669L48.1773 19.5551L47.6265 19.793ZM47.6265 20V20.6H48.2265V20H47.6265ZM45.1292 20L44.5795 20.2405L44.7367 20.6H45.1292V20ZM44.8445 18.9001L44.251 18.9881L44.2512 18.9897L44.8445 18.9001ZM45.155 11.5117L45.755 11.5025L45.7459 10.9117H45.155V11.5117ZM45.1809 13.1938V13.7938H45.7902L45.7808 13.1846L45.1809 13.1938ZM40.9368 13.3621L41.0508 13.9512L41.0599 13.9493L40.9368 13.3621ZM38.7629 14.656L39.2787 14.9627L39.2822 14.9566L38.7629 14.656ZM39.6687 17.8521L39.3822 18.3792L39.389 18.3829L39.3958 18.3864L39.6687 17.8521ZM43.0977 17.6968L42.807 17.1719L43.0977 17.6968ZM44.4304 16.5581L43.9504 16.1981L43.946 16.2041L44.4304 16.5581ZM44.9739 15.2512L45.4226 14.8529L44.4633 13.7722L44.375 15.2146L44.9739 15.2512ZM45.9961 16.4028L46.5879 16.5015L46.635 16.2188L46.4448 16.0045L45.9961 16.4028ZM44.4304 18.8743L44.8323 19.3198L44.8327 19.3194L44.4304 18.8743ZM42.8518 19.8706L43.0882 20.4221L43.0919 20.4205L42.8518 19.8706ZM38.3101 19.7024L38.0314 20.2338L38.0341 20.2351L38.3101 19.7024ZM36.6538 18.2144L36.143 18.5292L36.1482 18.5374L36.6538 18.2144ZM36.5115 14.1255L37.0449 14.4003L37.0465 14.397L36.5115 14.1255ZM37.7795 12.6892L38.1195 13.1837L38.1246 13.18L37.7795 12.6892ZM39.7722 11.8093L39.9208 12.3906L39.7722 11.8093ZM45.341 17.6062V10.3989H44.141V17.6062H45.341ZM45.341 10.3989C45.341 9.7647 45.2117 9.18214 44.9296 8.67221L43.8795 9.25308C44.046 9.55402 44.141 9.92899 44.141 10.3989H45.341ZM44.9367 8.68549C44.6599 8.15412 44.238 7.74809 43.6937 7.47058L43.1486 8.53967C43.4842 8.71073 43.7178 8.94305 43.8724 9.23981L44.9367 8.68549ZM43.6937 7.47058C43.1473 7.19204 42.5042 7.0687 41.7908 7.0687V8.2687C42.3713 8.2687 42.8151 8.36965 43.1486 8.53967L43.6937 7.47058ZM41.7908 7.0687C41.1186 7.0687 40.5008 7.18402 39.9517 7.43268L40.4467 8.52582C40.812 8.36041 41.2553 8.2687 41.7908 8.2687V7.0687ZM39.9478 7.43447C39.4256 7.67547 38.9896 8.00357 38.6626 8.42861L39.6138 9.16026C39.8044 8.91244 40.0757 8.69708 40.4507 8.52402L39.9478 7.43447ZM38.6567 8.43641C38.3361 8.86756 38.1629 9.35366 38.1629 9.88135H39.3629C39.3629 9.63267 39.4399 9.39416 39.6197 9.15246L38.6567 8.43641ZM38.7629 9.28135H36.3691V10.4813H38.7629V9.28135ZM36.9691 9.88135C36.9691 9.48878 37.0697 9.08798 37.2883 8.67276L36.2264 8.11386C35.9273 8.68204 35.7691 9.27326 35.7691 9.88135H36.9691ZM37.2883 8.67276C37.5054 8.26018 37.822 7.87656 38.251 7.52418L37.4893 6.59691C36.9521 7.03816 36.5268 7.54304 36.2264 8.11386L37.2883 8.67276ZM38.2518 7.52347C38.681 7.16957 39.202 6.88334 39.8239 6.67078L39.4358 5.53527C38.6948 5.78853 38.0426 6.14066 37.4884 6.59762L38.2518 7.52347ZM39.8281 6.66934C40.4454 6.45328 41.1449 6.34072 41.9331 6.34072V5.14072C41.0306 5.14072 40.1946 5.2697 39.4317 5.53671L39.8281 6.66934ZM41.9331 6.34072C42.8834 6.34072 43.6948 6.5017 44.3808 6.80659L44.8682 5.71001C44.0015 5.3248 43.0186 5.14072 41.9331 5.14072V6.34072ZM44.3831 6.80758C45.0628 7.10638 45.5806 7.5504 45.9542 8.14366L46.9697 7.50429C46.4633 6.70009 45.7562 6.10033 44.866 5.70902L44.3831 6.80758ZM45.9588 8.15097C46.3292 8.72069 46.5348 9.46615 46.5348 10.4248H47.7348C47.7348 9.29589 47.4918 8.30747 46.965 7.49698L45.9588 8.15097ZM46.5348 10.4248V16.9463H47.7348V10.4248H46.5348ZM46.5348 16.9463C46.5348 17.4452 46.5763 17.9707 46.6576 18.5219L47.8448 18.3468C47.7708 17.8456 47.7348 17.379 47.7348 16.9463H46.5348ZM46.6591 18.5314C46.7512 19.0929 46.8876 19.5954 47.0756 20.0308L48.1773 19.5551C48.0375 19.2314 47.9238 18.8282 47.8433 18.3373L46.6591 18.5314ZM47.0265 19.793V20H48.2265V19.793H47.0265ZM47.6265 19.4H45.1292V20.6H47.6265V19.4ZM45.6788 19.7595C45.5872 19.5501 45.5026 19.2403 45.4378 18.8106L44.2512 18.9897C44.3244 19.4743 44.4296 19.8979 44.5795 20.2405L45.6788 19.7595ZM45.438 18.8122C45.3725 18.3703 45.341 17.9688 45.341 17.6062H44.141C44.141 18.0373 44.1784 18.4983 44.251 18.9881L45.438 18.8122ZM44.5551 11.5209L44.581 13.2031L45.7808 13.1846L45.755 11.5025L44.5551 11.5209ZM45.1809 12.5938H42.7612V13.7938H45.1809V12.5938ZM42.7612 12.5938C42.0481 12.5938 41.3974 12.6524 40.8136 12.7748L41.0599 13.9493C41.5458 13.8474 42.1115 13.7938 42.7612 13.7938V12.5938ZM40.8228 12.773C40.2387 12.886 39.7206 13.0655 39.2842 13.3252L39.898 14.3564C40.1862 14.1848 40.5651 14.0451 41.0508 13.9511L40.8228 12.773ZM39.2842 13.3252C38.8441 13.5872 38.4904 13.9293 38.2437 14.3554L39.2822 14.9566C39.4151 14.7271 39.6135 14.5257 39.898 14.3564L39.2842 13.3252ZM38.2472 14.3494C37.9939 14.7754 37.8783 15.2602 37.8783 15.7817H39.0783C39.0783 15.4407 39.1524 15.175 39.2787 14.9627L38.2472 14.3494ZM37.8783 15.7817C37.8783 16.3156 37.9997 16.8169 38.2496 17.2733L39.3021 16.6969C39.1553 16.4287 39.0783 16.1277 39.0783 15.7817H37.8783ZM38.2496 17.2733C38.5085 17.746 38.894 18.1139 39.3822 18.3792L39.9552 17.3249C39.6498 17.1589 39.4401 16.9488 39.3021 16.6969L38.2496 17.2733ZM39.3958 18.3864C39.9066 18.6472 40.5018 18.7626 41.1567 18.7626V17.5626C40.6385 17.5626 40.2417 17.4709 39.9416 17.3177L39.3958 18.3864ZM41.1567 18.7626C41.9769 18.7626 42.7266 18.5882 43.3884 18.2217L42.807 17.1719C42.3473 17.4265 41.8031 17.5626 41.1567 17.5626V18.7626ZM43.3884 18.2217C44.0136 17.8754 44.5283 17.4411 44.9149 16.9121L43.946 16.2041C43.6769 16.5723 43.3031 16.8971 42.807 17.1719L43.3884 18.2217ZM44.9104 16.9181C45.2948 16.4055 45.5377 15.86 45.5728 15.2879L44.375 15.2146C44.3583 15.4878 44.2388 15.8135 43.9504 16.1981L44.9104 16.9181ZM44.5252 15.6495L45.5474 16.8011L46.4448 16.0045L45.4226 14.8529L44.5252 15.6495ZM45.4043 16.3042C45.3604 16.5674 45.2342 16.8956 44.9917 17.2946L46.0171 17.9179C46.3094 17.4369 46.511 16.9629 46.5879 16.5015L45.4043 16.3042ZM44.9917 17.2946C44.7591 17.6771 44.4409 18.056 44.0281 18.4291L44.8327 19.3194C45.3171 18.8816 45.7148 18.4151 46.0171 17.9179L44.9917 17.2946ZM44.0286 18.4287C43.6423 18.7771 43.1725 19.0759 42.6117 19.3207L43.0919 20.4205C43.7561 20.1305 44.3387 19.765 44.8323 19.3198L44.0286 18.4287ZM42.6155 19.3191C42.097 19.5413 41.4978 19.6588 40.8074 19.6588V20.8588C41.6352 20.8588 42.3989 20.7175 43.0882 20.4221L42.6155 19.3191ZM40.8074 19.6588C39.9376 19.6588 39.2029 19.4892 38.5861 19.1696L38.0341 20.2351C38.8492 20.6574 39.7794 20.8588 40.8074 20.8588V19.6588ZM38.5887 19.171C37.9659 18.8444 37.4953 18.4171 37.1594 17.8913L36.1482 18.5374C36.6059 19.2538 37.2395 19.8185 38.0314 20.2338L38.5887 19.171ZM37.1646 17.8995C36.8377 17.3692 36.6715 16.7762 36.6715 16.1052H35.4715C35.4715 16.987 35.6936 17.8 36.1431 18.5292L37.1646 17.8995ZM36.6715 16.1052C36.6715 15.4339 36.8023 14.8711 37.0449 14.4003L35.9781 13.8507C35.6341 14.5185 35.4715 15.2756 35.4715 16.1052H36.6715ZM37.0465 14.397C37.2929 13.9116 37.6471 13.5084 38.1195 13.1836L37.4396 12.1948C36.8078 12.6292 36.3167 13.1835 35.9764 13.854L37.0465 14.397ZM38.1246 13.18C38.6072 12.8407 39.202 12.5743 39.9208 12.3906L39.6237 11.228C38.7897 11.4411 38.056 11.7614 37.4344 12.1984L38.1246 13.18ZM39.9208 12.3906C40.6403 12.2068 41.4562 12.1117 42.373 12.1117V10.9117C41.3748 10.9117 40.4569 11.0151 39.6237 11.228L39.9208 12.3906ZM42.373 12.1117H45.155V10.9117H42.373V12.1117ZM53.2939 8.69092H53.8939V8.66788L53.8922 8.6449L53.2939 8.69092ZM53.2939 25.3828V25.9828H53.8939V25.3828H53.2939ZM50.8872 25.3828H50.2872V25.9828H50.8872V25.3828ZM50.8872 5.99951V5.39951H50.2872V5.99951H50.8872ZM53.0869 5.99951L53.6851 5.95349L53.6425 5.39951H53.0869V5.99951ZM62.3645 15.9888L62.9423 16.1505L62.9427 16.1491L62.3645 15.9888ZM61.3035 18.2402L60.8188 17.8865L60.8157 17.8909L61.3035 18.2402ZM53.2034 18.5378L52.7453 18.9254L53.2034 18.5378ZM52.0647 16.5193L51.4986 16.7183L51.5006 16.7238L52.0647 16.5193ZM51.4954 13.8667H50.8954V13.8982L50.8987 13.9295L51.4954 13.8667ZM51.4954 12.4175L50.8983 12.3578L50.8954 12.3876V12.4175H51.4954ZM53.2034 7.53931L52.7369 7.16198L52.7362 7.16279L53.2034 7.53931ZM54.9243 6.20654L55.17 6.75399L55.1758 6.75132L54.9243 6.20654ZM59.5955 6.2583L59.3244 6.79362L59.3299 6.79631L59.5955 6.2583ZM62.3645 9.97192L61.7844 10.1255L61.7863 10.1322L62.3645 9.97192ZM60.1001 10.9165L59.5162 11.0544L59.5166 11.0562L60.1001 10.9165ZM59.4143 9.28613L58.908 9.60833L58.9151 9.61895L59.4143 9.28613ZM58.2498 8.17334L57.948 8.692L57.9551 8.69603L58.2498 8.17334ZM54.9761 8.06982L54.7246 7.52503L54.7206 7.52693L54.9761 8.06982ZM53.8503 8.91089L54.2964 9.3123L54.3012 9.30677L53.8503 8.91089ZM53.0869 10.1013L52.5382 9.8586L52.536 9.86366L53.0869 10.1013ZM52.6599 11.4729L52.0716 11.3552L52.0599 11.4135V11.4729H52.6599ZM52.6599 14.8242H52.0599V14.9083L52.083 14.9891L52.6599 14.8242ZM53.3845 16.5322L52.8656 16.8335L52.8678 16.8372L53.3845 16.5322ZM54.6267 17.8132L54.3057 18.3202L54.3118 18.3239L54.6267 17.8132ZM58.2498 17.8909L58.5485 18.4112L58.5515 18.4095L58.2498 17.8909ZM59.4143 16.7651L58.9122 16.4365L58.9081 16.443L59.4143 16.7651ZM60.1001 15.1348L60.6836 15.2745L60.684 15.2726L60.1001 15.1348ZM52.6939 8.69092V25.3828H53.8939V8.69092H52.6939ZM53.2939 24.7828H50.8872V25.9828H53.2939V24.7828ZM51.4872 25.3828V5.99951H50.2872V25.3828H51.4872ZM50.8872 6.59951H53.0869V5.39951H50.8872V6.59951ZM52.4887 6.04553L52.6957 8.73694L53.8922 8.6449L53.6851 5.95349L52.4887 6.04553ZM62.1268 12.8833V13.155H63.3268V12.8833H62.1268ZM62.1268 13.155C62.1268 14.1255 62.0117 15.0155 61.7863 15.8285L62.9427 16.1491C63.2004 15.2195 63.3268 14.2204 63.3268 13.155H62.1268ZM61.7867 15.827C61.562 16.6297 61.2371 17.3133 60.8188 17.8866L61.7881 18.5939C62.3015 17.8905 62.684 17.0731 62.9423 16.1505L61.7867 15.827ZM60.8157 17.8909C60.4111 18.4558 59.9166 18.8884 59.3292 19.1972L59.8876 20.2594C60.6459 19.8607 61.2815 19.3014 61.7913 18.5896L60.8157 17.8909ZM59.3292 19.1972C58.7543 19.4994 58.0805 19.6588 57.2922 19.6588V20.8588C58.2464 20.8588 59.1168 20.6645 59.8876 20.2594L59.3292 19.1972ZM57.2922 19.6588C56.4695 19.6588 55.7677 19.5231 55.1744 19.2677L54.7001 20.37C55.4697 20.7012 56.338 20.8588 57.2922 20.8588V19.6588ZM55.1744 19.2677C54.5774 19.0107 54.0753 18.6394 53.6614 18.1503L52.7453 18.9254C53.2804 19.5577 53.9342 20.0404 54.7001 20.37L55.1744 19.2677ZM53.6614 18.1503C53.2387 17.6507 52.8925 17.042 52.6288 16.3147L51.5006 16.7238C51.8063 17.5666 52.2192 18.3036 52.7453 18.9254L53.6614 18.1503ZM52.6307 16.3202C52.3728 15.5866 52.1916 14.7493 52.0921 13.8039L50.8987 13.9295C51.0062 14.9509 51.2046 15.8819 51.4987 16.7183L52.6307 16.3202ZM52.0954 13.8667V12.4175H50.8954V13.8667H52.0954ZM52.0924 12.4772C52.1921 11.4798 52.3779 10.5997 52.6444 9.83238L51.5109 9.43862C51.2081 10.3103 51.0056 11.2848 50.8983 12.3578L52.0924 12.4772ZM52.6444 9.83238C52.9102 9.06727 53.2546 8.43187 53.6705 7.91582L52.7362 7.16279C52.2205 7.80267 51.8144 8.56473 51.5109 9.43862L52.6444 9.83238ZM53.6699 7.91663C54.0865 7.40155 54.5851 7.0164 55.17 6.75396L54.6787 5.65913C53.9178 6.00053 53.2691 6.50389 52.7369 7.16199L53.6699 7.91663ZM55.1758 6.75132C55.7564 6.48333 56.4443 6.34072 57.2534 6.34072V5.14072C56.3028 5.14072 55.438 5.30866 54.6729 5.66177L55.1758 6.75132ZM57.2534 6.34072C58.0535 6.34072 58.7389 6.49712 59.3244 6.7936L59.8665 5.72301C59.0891 5.32938 58.2131 5.14072 57.2534 5.14072V6.34072ZM59.3299 6.79631C59.923 7.08913 60.4232 7.50897 60.834 8.06434L61.7988 7.3507C61.278 6.64663 60.6309 6.10032 59.8611 5.72029L59.3299 6.79631ZM60.834 8.06434C61.2481 8.62404 61.5679 9.30719 61.7845 10.1255L62.9445 9.81839C62.6953 8.87689 62.3164 8.05044 61.7988 7.3507L60.834 8.06434ZM61.7863 10.1322C62.011 10.9428 62.1268 11.8582 62.1268 12.8833H63.3268C63.3268 11.7691 63.2011 10.7436 62.9427 9.81163L61.7863 10.1322ZM60.9201 13.155V12.8833H59.7201V13.155H60.9201ZM60.9201 12.8833C60.9201 12.1426 60.8423 11.4397 60.6836 10.7768L59.5166 11.0562C59.6512 11.6182 59.7201 12.2266 59.7201 12.8833H60.9201ZM60.684 10.7786C60.5233 10.0976 60.2688 9.48625 59.9135 8.95331L58.9151 9.61895C59.1809 10.0177 59.3836 10.4932 59.5162 11.0544L60.684 10.7786ZM59.9205 8.96401C59.5674 8.40914 59.1076 7.96812 58.5444 7.65065L57.9551 8.69603C58.3408 8.91339 58.6574 9.21423 58.9081 9.60826L59.9205 8.96401ZM58.5515 7.65473C57.9691 7.31587 57.2956 7.15928 56.5547 7.15928V8.35928C57.125 8.35928 57.5815 8.47873 57.948 8.69195L58.5515 7.65473ZM56.5547 7.15928C55.8829 7.15928 55.2676 7.27447 54.7246 7.52505L55.2275 8.6146C55.5817 8.45111 56.0188 8.35928 56.5547 8.35928V7.15928ZM54.7206 7.52693C54.2086 7.76785 53.7662 8.09737 53.3995 8.51501L54.3012 9.30677C54.5556 9.01705 54.8636 8.78586 55.2316 8.61272L54.7206 7.52693ZM53.4044 8.50951C53.0491 8.9043 52.7608 9.35536 52.5382 9.85861L53.6356 10.344C53.8098 9.95015 54.0305 9.60758 54.2963 9.31227L53.4044 8.50951ZM52.536 9.86366C52.3294 10.3426 52.1746 10.84 52.0716 11.3552L53.2483 11.5906C53.335 11.1569 53.4649 10.74 53.6378 10.339L52.536 9.86366ZM52.0599 11.4729V14.8242H53.2599V11.4729H52.0599ZM52.083 14.9891C52.2689 15.6399 52.5298 16.2551 52.8656 16.8335L53.9034 16.2309C53.6181 15.7397 53.3959 15.2163 53.2368 14.6594L52.083 14.9891ZM52.8678 16.8372C53.2268 17.4455 53.708 17.9416 54.3057 18.3201L54.9477 17.3063C54.5102 17.0293 54.1633 16.6714 53.9012 16.2273L52.8678 16.8372ZM54.3118 18.3239C54.9479 18.7162 55.7162 18.892 56.5806 18.892V17.692C55.875 17.692 55.3407 17.5486 54.9416 17.3025L54.3118 18.3239ZM56.5806 18.892C57.3109 18.892 57.9748 18.7405 58.5485 18.4112L57.951 17.3705C57.5931 17.576 57.1441 17.692 56.5806 17.692V18.892ZM58.5515 18.4095C59.1109 18.084 59.5684 17.6405 59.9205 17.0873L58.9081 16.443C58.6564 16.8386 58.3375 17.1456 57.948 17.3723L58.5515 18.4095ZM59.9163 17.0937C60.2687 16.5555 60.5226 15.9467 60.6836 15.2745L59.5166 14.9951C59.3843 15.5477 59.181 16.0259 58.9123 16.4365L59.9163 17.0937ZM60.684 15.2726C60.8423 14.6023 60.9201 13.8958 60.9201 13.155H59.7201C59.7201 13.8117 59.6512 14.425 59.5162 14.9969L60.684 15.2726Z" fill="url(#paint1_linear_9_19)" fill-opacity="0.7"/>
<defs>
<linearGradient id="paint0_linear_9_19" x1="-1" y1="-5" x2="62.5707" y2="22.6704" gradientUnits="userSpaceOnUse">
<stop stop-color="#43CEA2"/>
<stop offset="1" stop-color="#5493D2" stop-opacity="0.88"/>
</linearGradient>
<linearGradient id="paint1_linear_9_19" x1="-1" y1="-5" x2="62.5707" y2="22.6704" gradientUnits="userSpaceOnUse">
<stop stop-color="#43CEA2"/>
<stop offset="1" stop-color="#5493D2" stop-opacity="0.88"/>
</linearGradient>
</defs>
</svg>
