<svg width="22" height="23" viewBox="0 0 22 23" fill="none" xmlns="http://www.w3.org/2000/svg">
<path d="M15.7083 8.31267V13.8138C15.7083 14.4024 15.7083 14.6967 15.8283 14.919C15.9209 15.0906 16.0617 15.2314 16.2333 15.324C16.4556 15.444 16.7499 15.444 17.3385 15.444V15.444C18.8404 15.444 19.5914 15.444 19.8839 15.7346C20.1048 15.954 20.2109 16.2639 20.1709 16.5727C20.1178 16.9815 19.5244 17.4418 18.3376 18.3624L14.819 21.0916C14.2547 21.5293 13.9725 21.7481 13.6425 21.7554C13.3124 21.7627 13.0209 21.5564 12.438 21.1439L8.01717 18.0158C7.15904 17.4086 6.72998 17.105 6.61798 16.8606C6.4033 16.3922 6.57976 15.8373 7.02559 15.5789C7.25821 15.444 7.78381 15.444 8.83503 15.444V15.444C9.2222 15.444 9.41578 15.444 9.57188 15.3911C9.8667 15.2912 10.0982 15.0598 10.1981 14.7649C10.251 14.6088 10.251 14.4153 10.251 14.0281L10.251 8.05114C10.251 7.76898 10.251 7.6279 10.2792 7.51154C10.3676 7.14805 10.6514 6.86424 11.0149 6.77592C11.1312 6.74765 11.2723 6.74765 11.5545 6.74765V6.74765C12.329 6.74765 12.7162 6.74765 12.8966 6.67466C13.4802 6.43854 13.7031 5.72835 13.359 5.20112C13.2527 5.03814 12.9348 4.81688 12.2992 4.37438L8.58155 1.78625C8.03503 1.40578 7.76178 1.21555 7.45098 1.21385C7.14019 1.21214 6.86486 1.39937 6.31421 1.77383L2.40336 4.43329C1.83102 4.82249 1.54485 5.01709 1.44332 5.15514C1.04561 5.69586 1.28299 6.4671 1.91593 6.69059C2.07752 6.74765 2.42358 6.74765 3.11571 6.74765V6.74765C3.3637 6.74765 3.48769 6.74765 3.59055 6.76952C3.97678 6.85166 4.27851 7.15339 4.36065 7.53962C4.38252 7.64249 4.38252 7.76648 4.38252 8.01446V14.1694" stroke="url(#paint0_linear_1459_3)" stroke-opacity="0.8" stroke-width="2"/>
<defs>
<linearGradient id="paint0_linear_1459_3" x1="-0.144444" y1="11.5" x2="22.137" y2="12.0674" gradientUnits="userSpaceOnUse">
<stop stop-color="#DCF8EF"/>
<stop offset="1" stop-color="#FEE2F8"/>
</linearGradient>
</defs>
</svg>
